<svg width="327" height="252" viewBox="0 0 327 252" fill="none" xmlns="http://www.w3.org/2000/svg">
<g filter="url(#filter0_d_88_2)">
<path d="M42 186C39.6 186 38 185.667 37.2 185C36.4 184.2 36 182.6 36 180.2V112C37.0667 111.6 38.6 111.067 40.6 110.4C42.6 109.733 45 109.067 47.8 108.4C50.6 107.6 53.8 107 57.4 106.6C61.1333 106.067 65.2 105.8 69.6 105.8C74.1333 105.8 78.0667 106.2 81.4 107C84.7333 107.667 87.6 108.933 90 110.8C92.4 112.533 94.4 114.933 96 118H93.2C94.2667 115.733 95.8 113.8 97.8 112.2C99.8 110.467 102.133 109.133 104.8 108.2C107.467 107.267 110.2 106.6 113 106.2C115.933 105.8 118.733 105.6 121.4 105.6C128.867 105.6 134.733 106.333 139 107.8C143.267 109.267 146.267 111.733 148 115.2C149.867 118.667 150.8 123.267 150.8 129V180.6C150.8 182.733 150.4 184.2 149.6 185C148.8 185.667 147.333 186 145.2 186H136.8C136.8 176.4 136.8 166.867 136.8 157.4C136.8 147.8 136.8 138.2 136.8 128.6C136.8 122.733 135.333 118.733 132.4 116.6C129.6 114.333 125.4 113.2 119.8 113.2C117.133 113.2 114.267 113.533 111.2 114.2C108.267 114.867 105.733 115.867 103.6 117.2C101.467 118.533 100.4 120.067 100.4 121.8V186H86.4V123.4C86.4 120.6 84.7333 118.267 81.4 116.4C78.2 114.4 74.0667 113.4 69 113.4C65.9333 113.4 63 113.667 60.2 114.2C57.4 114.6 55.0667 115.267 53.2 116.2C51.3333 117 50.2667 118.133 50 119.6V186H42ZM209.695 186.6C202.229 186.6 196.029 186.2 191.095 185.4C186.295 184.467 182.629 182.667 180.095 180C177.562 177.333 175.829 173.4 174.895 168.2C173.962 163 173.495 156.067 173.495 147.4L173.295 85H187.095V107C187.495 107 188.762 106.933 190.895 106.8C193.029 106.667 195.562 106.6 198.495 106.6C201.429 106.467 204.295 106.333 207.095 106.2C209.895 106.067 212.229 106 214.095 106C223.429 106 230.695 107.267 235.895 109.8C241.229 112.333 244.962 116.533 247.095 122.4C249.362 128.267 250.562 136.133 250.695 146C250.695 155.733 249.695 163.4 247.695 169C245.829 174.467 243.095 178.467 239.495 181C236.029 183.533 231.762 185.133 226.695 185.8C221.629 186.333 215.962 186.6 209.695 186.6ZM209.895 178.4C216.829 178.4 222.162 177.667 225.895 176.2C229.762 174.6 232.495 171.467 234.095 166.8C235.829 162 236.695 154.867 236.695 145.4C236.562 137.667 235.629 131.6 233.895 127.2C232.295 122.667 229.695 119.4 226.095 117.4C222.495 115.267 217.762 114.2 211.895 114.2C210.029 114.2 207.829 114.267 205.295 114.4C202.762 114.4 200.162 114.467 197.495 114.6C194.962 114.733 192.695 114.867 190.695 115C188.829 115 187.695 115 187.295 115V149C187.295 155.4 187.495 160.533 187.895 164.4C188.429 168.267 189.429 171.2 190.895 173.2C192.362 175.2 194.629 176.6 197.695 177.4C200.762 178.067 204.829 178.4 209.895 178.4ZM276.147 180.6C276.147 178.067 276.947 176.467 278.547 175.8C280.147 175.133 282.014 174.8 284.147 174.8C286.414 174.8 288.28 175.133 289.747 175.8C291.214 176.333 291.947 177.933 291.947 180.6C291.947 182.333 291.547 183.6 290.747 184.4C290.08 185.2 289.147 185.733 287.947 186C286.88 186.133 285.614 186.2 284.147 186.2C282.814 186.2 281.547 186.133 280.347 186C279.147 185.733 278.147 185.2 277.347 184.4C276.547 183.6 276.147 182.333 276.147 180.6Z" fill="url(#paint0_linear_88_2)"/>
</g>
<defs>
<filter id="filter0_d_88_2" x="4" y="65" width="319.947" height="165.6" filterUnits="userSpaceOnUse" color-interpolation-filters="sRGB">
<feFlood flood-opacity="0" result="BackgroundImageFix"/>
<feColorMatrix in="SourceAlpha" type="matrix" values="0 0 0 0 0 0 0 0 0 0 0 0 0 0 0 0 0 0 127 0" result="hardAlpha"/>
<feOffset dy="12"/>
<feGaussianBlur stdDeviation="16"/>
<feComposite in2="hardAlpha" operator="out"/>
<feColorMatrix type="matrix" values="0 0 0 0 0 0 0 0 0 0 0 0 0 0 0 0 0 0 0.1 0"/>
<feBlend mode="normal" in2="BackgroundImageFix" result="effect1_dropShadow_88_2"/>
<feBlend mode="normal" in="SourceGraphic" in2="effect1_dropShadow_88_2" result="shape"/>
</filter>
<linearGradient id="paint0_linear_88_2" x1="24" y1="184.286" x2="281.785" y2="115.514" gradientUnits="userSpaceOnUse">
<stop stop-color="#99D98C"/>
<stop offset="1" stop-color="#168AAD"/>
</linearGradient>
</defs>
</svg>
