<?xml version="1.0" standalone="no"?>
<!DOCTYPE svg PUBLIC "-//W3C//DTD SVG 20010904//EN"
 "http://www.w3.org/TR/2001/REC-SVG-20010904/DTD/svg10.dtd">
<svg version="1.0" xmlns="http://www.w3.org/2000/svg"
 width="654.000000pt" height="654.000000pt" viewBox="0 0 654.000000 654.000000"
 preserveAspectRatio="xMidYMid meet">
<metadata>
Created by potrace 1.14, written by Peter Selinger 2001-2017
</metadata>
<g transform="translate(0.000000,654.000000) scale(0.100000,-0.100000)"
fill="#000000" stroke="none">
<path d="M3469 4086 c-6 -6 -1 -1285 5 -1421 3 -60 8 -126 10 -145 3 -19 8
-53 11 -75 7 -60 12 -78 29 -118 8 -20 12 -37 8 -37 -4 0 -2 -4 3 -8 6 -4 17
-19 25 -33 56 -99 156 -153 320 -175 194 -27 650 -16 736 16 13 5 24 7 24 4 0
-2 10 1 23 8 12 7 24 13 27 13 3 0 15 6 28 13 12 7 22 9 22 5 0 -4 4 -3 8 2 4
6 22 22 41 35 38 26 100 90 101 103 0 5 9 22 21 38 11 16 17 29 13 29 -4 0 0
8 8 18 17 19 57 161 62 217 1 11 4 25 7 30 3 6 5 29 5 52 -1 24 1 43 4 43 7 0
4 258 -4 335 -5 54 -13 106 -31 200 -3 17 -10 44 -15 60 -6 17 -10 32 -9 35 2
13 -71 135 -100 166 -41 43 -111 92 -154 106 -17 6 -37 15 -42 19 -6 4 -26 11
-45 14 -18 3 -36 7 -39 9 -32 20 -335 26 -672 13 l-157 -5 0 201 c0 111 -1
210 -1 220 -1 15 -14 17 -134 17 -74 0 -136 -2 -138 -4z m886 -589 c90 -12
187 -58 243 -115 33 -34 77 -122 101 -202 36 -122 44 -405 15 -585 -16 -104
-36 -162 -77 -225 -27 -42 -93 -100 -120 -104 -7 -1 -16 -4 -22 -8 -31 -18
-133 -30 -285 -32 -119 -2 -169 2 -260 18 -54 10 -140 72 -140 101 0 8 -4 15
-9 15 -8 0 -24 47 -37 110 -3 14 -8 66 -11 115 -6 104 -10 874 -5 892 2 7 25
12 55 13 80 1 199 8 202 12 5 4 312 0 350 -5z"/>
<path d="M1307 3674 c-1 -2 -42 -5 -90 -8 -48 -3 -90 -7 -95 -9 -4 -3 -29 -8
-56 -11 -85 -12 -324 -81 -342 -99 -9 -9 -8 -262 1 -276 3 -6 3 -11 -2 -11 -6
0 -9 -431 -3 -465 2 -5 1 -14 0 -20 -6 -30 -4 -185 3 -185 5 0 5 -5 2 -11 -9
-13 -9 -403 0 -444 10 -54 32 -63 162 -64 l118 -2 -3 183 c-2 101 -3 192 -2
203 5 104 3 455 -3 455 -5 0 -5 5 -2 10 4 6 7 120 7 255 0 236 1 244 22 264
23 21 112 58 136 56 8 -1 20 2 25 5 26 16 306 21 340 6 11 -5 25 -10 31 -11
50 -11 144 -81 160 -120 4 -11 9 -306 10 -655 2 -349 3 -639 3 -643 1 -4 63
-6 139 -5 l137 3 2 645 c1 433 5 654 12 674 6 15 20 30 31 33 11 3 20 9 20 14
0 13 96 52 155 64 109 22 196 25 284 10 70 -12 157 -57 167 -87 3 -10 9 -18
14 -18 5 0 17 -26 27 -57 15 -52 17 -123 19 -663 1 -333 2 -609 3 -613 2 -12
223 -6 246 7 11 6 22 22 25 36 6 37 5 1157 -2 1210 -11 91 -58 191 -109 236
-89 77 -221 109 -459 109 -249 -1 -389 -41 -501 -145 l-48 -45 -45 47 c-71 74
-175 119 -308 134 -54 6 -227 12 -231 8z"/>
<path d="M5625 2288 c-79 -16 -105 -44 -101 -109 6 -83 37 -108 139 -113 130
-5 178 30 173 124 -2 26 -6 52 -10 59 -22 34 -124 54 -201 39z"/>
</g>
</svg>
